<?xml version="1.0" encoding="UTF-8"?>
<svg version="1.1" xmlns="http://www.w3.org/2000/svg" width="512" height="512">
<path d="M0 0 C168.96 0 337.92 0 512 0 C512 168.96 512 337.92 512 512 C343.04 512 174.08 512 0 512 C0 343.04 0 174.08 0 0 Z " fill="#222222" transform="translate(0,0)"/>
<path d="M0 0 C7.59 0 15.18 0 23 0 C19.625 11.25 19.625 11.25 17.51953125 16.6640625 C16.92168823 18.2102124 16.92168823 18.2102124 16.31176758 19.78759766 C15.81700928 21.05394043 15.32225098 22.3202832 14.8125 23.625 C13.224375 27.70875 11.63625 31.7925 10 36 C23.365 36.495 23.365 36.495 37 37 C37.99 33.7 38.98 30.4 40 27 C40.78679449 24.7801266 41.59889575 22.56892499 42.4453125 20.37109375 C42.88230469 19.23478516 43.31929688 18.09847656 43.76953125 16.92773438 C44.21683594 15.77595703 44.66414063 14.62417969 45.125 13.4375 C45.58003906 12.25091797 46.03507812 11.06433594 46.50390625 9.84179688 C49.86805556 1.13194444 49.86805556 1.13194444 51 0 C52.63472882 -0.08700342 54.27314055 -0.10701063 55.91015625 -0.09765625 C56.89951172 -0.09443359 57.88886719 -0.09121094 58.90820312 -0.08789062 C59.94912109 -0.07951172 60.99003906 -0.07113281 62.0625 -0.0625 C63.62967773 -0.05573242 63.62967773 -0.05573242 65.22851562 -0.04882812 C67.8190666 -0.03699913 70.40950559 -0.02051689 73 0 C72.38422601 4.74114066 71.03450353 8.94827605 69.27734375 13.3671875 C69.01240616 14.04677521 68.74746857 14.72636292 68.47450256 15.42654419 C67.63425265 17.57819715 66.78602252 19.72659782 65.9375 21.875 C65.36340046 23.34093767 64.7898273 24.80708159 64.21679688 26.2734375 C62.81727522 29.85137288 61.4105921 33.42641543 60 37 C64.29 37 68.58 37 73 37 C71.98086093 42.96924314 70.92338063 48.22985812 69 54 C63.72 54 58.44 54 53 54 C52.58322998 55.44487793 52.16645996 56.88975586 51.73706055 58.37841797 C50.14556064 63.67767434 48.24217677 68.80286996 46.20703125 73.9453125 C45.85613937 74.84120087 45.5052475 75.73708923 45.14372253 76.66012573 C44.03702849 79.48322504 42.92486965 82.30413289 41.8125 85.125 C41.05497396 87.05454441 40.29780921 88.98423069 39.54101562 90.9140625 C37.69817785 95.61102352 35.85044045 100.30602926 34 105 C38.62 105 43.24 105 48 105 C47.46481341 110.7978547 46.63560371 115.27538703 45 121 C39.06 121 33.12 121 27 121 C26.62101562 122.33933594 26.24203125 123.67867188 25.8515625 125.05859375 C23.91354153 131.51600674 21.53555789 137.79655207 19.12890625 144.08959961 C18.3650417 146.08855993 17.60798269 148.09000922 16.8515625 150.09179688 C16.36758291 151.36473374 15.88322243 152.63752587 15.3984375 153.91015625 C14.74367432 155.62924194 14.74367432 155.62924194 14.07568359 157.38305664 C13 160 13 160 12 161 C10.36527118 161.08700342 8.72685945 161.10701063 7.08984375 161.09765625 C6.10048828 161.09443359 5.11113281 161.09121094 4.09179688 161.08789062 C3.05087891 161.07951172 2.00996094 161.07113281 0.9375 161.0625 C-0.10728516 161.05798828 -1.15207031 161.05347656 -2.22851562 161.04882812 C-4.8190666 161.03699913 -7.40950559 161.02051689 -10 161 C-9.36424474 155.97581521 -7.89113714 151.65470895 -6.05859375 146.9765625 C-5.77146011 146.23038666 -5.48432648 145.48421082 -5.18849182 144.71542358 C-4.27680874 142.34985577 -3.35729089 139.9874255 -2.4375 137.625 C-1.81523393 136.01452424 -1.19348364 134.40384908 -0.57226562 132.79296875 C0.94491405 128.85923986 2.47266623 124.9298574 4 121 C-9.365 121.495 -9.365 121.495 -23 122 C-23.99902344 124.64773438 -24.99804688 127.29546875 -26.02734375 130.0234375 C-26.99347785 132.58180248 -27.95997781 135.14002896 -28.92651367 137.69824219 C-29.59909749 139.47902195 -30.27129965 141.2599459 -30.94311523 143.04101562 C-31.90769235 145.59803481 -32.87363166 148.15453575 -33.83984375 150.7109375 C-34.14091537 151.50994476 -34.441987 152.30895203 -34.75218201 153.13217163 C-36.88612829 158.77225659 -36.88612829 158.77225659 -38 161 C-45.26 161 -52.52 161 -60 161 C-58.875 153.125 -58.875 153.125 -57.69311523 150.17602539 C-57.43292099 149.51586929 -57.17272675 148.8557132 -56.90464783 148.17555237 C-56.62544998 147.48984665 -56.34625214 146.80414093 -56.05859375 146.09765625 C-55.77146011 145.3750914 -55.48432648 144.65252655 -55.18849182 143.9080658 C-54.27866051 141.62327035 -53.3582868 139.34289924 -52.4375 137.0625 C-51.8150509 135.50483855 -51.19329907 133.94689828 -50.57226562 132.38867188 C-49.05621955 128.58917672 -47.53071027 124.79360976 -46 121 C-50.29 121 -54.58 121 -59 121 C-58.46481341 115.2021453 -57.63560371 110.72461297 -56 105 C-50.39 105 -44.78 105 -39 105 C-38.67 103.35 -38.34 101.7 -38 100 C-37.51618428 98.50509863 -36.9980504 97.02094926 -36.44946289 95.54858398 C-36.13566177 94.70098007 -35.82186066 93.85337616 -35.49855042 92.98008728 C-35.16000534 92.07786942 -34.82146027 91.17565155 -34.47265625 90.24609375 C-34.12367783 89.30822525 -33.7746994 88.37035675 -33.41514587 87.40406799 C-32.67806323 85.42568808 -31.93913501 83.44799492 -31.19848633 81.47094727 C-30.06587717 78.44651812 -28.93971535 75.41974739 -27.81445312 72.39257812 C-27.0967349 70.46860793 -26.37864836 68.54477508 -25.66015625 66.62109375 C-25.32363541 65.71685165 -24.98711456 64.81260956 -24.64039612 63.88096619 C-24.32344284 63.03651443 -24.00648956 62.19206268 -23.67993164 61.32202148 C-23.40315079 60.58209457 -23.12636993 59.84216766 -22.84120178 59.07981873 C-22.00244338 57.00604111 -21.00040684 55.00081369 -20 53 C-24.62 53 -29.24 53 -34 53 C-33.39623622 47.36487141 -32.40669734 42.62678937 -31 37 C-25.06 37 -19.12 37 -13 37 C-12.67 35.02 -12.34 33.04 -12 31 C-11.14174363 28.50886649 -10.24950222 26.07759996 -9.27734375 23.6328125 C-9.01240616 22.95322479 -8.74746857 22.27363708 -8.47450256 21.57345581 C-7.63425265 19.42180285 -6.78602252 17.27340218 -5.9375 15.125 C-5.36340046 13.65906233 -4.7898273 12.19291841 -4.21679688 10.7265625 C-2.81824125 7.14820309 -1.40891858 3.57436056 0 0 Z " fill="#A8A8A8" transform="translate(193,180)"/>
<path d="M0 0 C5.30509697 -0.13960781 9.8136626 0.20341565 15 1.5 C16.134375 1.7784375 17.26875 2.056875 18.4375 2.34375 C19.7059375 2.66859375 19.7059375 2.66859375 21 3 C21.70214844 4.5612793 21.70214844 4.5612793 22 7 C21.02313794 9.4644588 19.99402492 11.6853779 18.765625 14.01953125 C18.41718033 14.70515137 18.06873566 15.39077148 17.70973206 16.09716797 C16.95904463 17.57115538 16.20294966 19.0423987 15.44204712 20.51113892 C13.83009179 23.623173 12.2444125 26.74833631 10.65705872 29.87297058 C9.86249953 31.43633008 9.06659118 32.99900461 8.26933289 34.56098938 C5.3576994 40.2689794 2.54355354 46.01575791 -0.1875 51.8125 C-5.62495739 63.30098846 -11.22235985 74.71025056 -16.8125 86.125 C-22.94639597 98.65248368 -29.07536594 111.18156911 -35.125 123.75 C-42.71154948 139.50861498 -50.39118192 155.22157611 -58.06494141 170.93785095 C-62.96598167 180.97646705 -67.85817538 191.01939075 -72.75 201.0625 C-73.58683023 202.78043739 -74.42366284 204.49837363 -75.26049805 206.21630859 C-77.17377777 210.14415099 -79.08693128 214.07205483 -81 218 C-82.42239829 218.01785571 -83.84486242 218.03050904 -85.26733398 218.04101562 C-86.05945786 218.04862915 -86.85158173 218.05624268 -87.66770935 218.06408691 C-90.92416744 217.97460564 -93.91099793 217.29616894 -97.0625 216.5 C-98.18785156 216.2215625 -99.31320312 215.943125 -100.47265625 215.65625 C-101.30667969 215.4396875 -102.14070313 215.223125 -103 215 C-102.40660789 211.44486225 -101.46159137 208.5231192 -99.8894043 205.28466797 C-99.4540889 204.38112579 -99.0187735 203.47758362 -98.57026672 202.54666138 C-98.09719589 201.579935 -97.62412506 200.61320862 -97.13671875 199.6171875 C-96.64483566 198.60091278 -96.15295258 197.58463806 -95.64616394 196.53756714 C-94.10366248 193.35530993 -92.55273239 190.17727597 -91 187 C-90.06585373 185.08238806 -89.13176955 183.16474588 -88.19775391 181.24707031 C-85.89073906 176.51741647 -83.57527192 171.79195139 -81.25674438 167.06793213 C-78.74140449 161.94243213 -76.23000454 156.81500259 -73.71875 151.6875 C-73.22268753 150.67470978 -72.72662506 149.66191956 -72.2155304 148.61843872 C-68.06013556 140.13078139 -63.92890197 131.63162462 -59.8125 123.125 C-53.91891808 110.94701709 -47.99738143 98.78291035 -42.0625 86.625 C-27.98253914 57.77861063 -13.97068902 28.89945615 0 0 Z " fill="#A8A8A8" transform="translate(359,147)"/>
<path d="M0 0 C6.12700729 0.52226942 11.18856872 4.2271489 16.3046875 7.36328125 C18.0303329 8.39039839 19.75599497 9.41748874 21.4826355 10.44293213 C23.27348776 11.50933418 25.05982649 12.58300494 26.84570312 13.65771484 C32.53765396 17.07346498 38.29934992 20.36828131 44.0546875 23.67578125 C45.13266602 24.29791504 46.21064453 24.92004883 47.32128906 25.56103516 C55.65601216 30.37012161 64.02464291 35.11579416 72.4296875 39.80078125 C72.16687958 41.42709847 71.89385519 43.05176441 71.6171875 44.67578125 C71.39095703 46.03316406 71.39095703 46.03316406 71.16015625 47.41796875 C70.91910156 48.53429687 70.67804688 49.650625 70.4296875 50.80078125 C70.27056885 51.61562988 70.1114502 52.43047852 69.94750977 53.27001953 C68.83700099 57.97228285 68.21296008 60.21452815 64.24609375 63.18359375 C62.84364551 63.80086248 61.42341941 64.37855465 59.9921875 64.92578125 C58.77716553 65.44664307 58.77716553 65.44664307 57.53759766 65.97802734 C55.63288929 66.79452623 53.72179879 67.59622328 51.80615234 68.38671875 C47.95287122 70.00047177 44.1374956 71.68889677 40.32421875 73.39453125 C39.60077774 73.71811615 38.87733673 74.04170105 38.13197327 74.37509155 C36.62559193 75.04890902 35.11922935 75.72276841 33.61288452 76.39666748 C31.29505047 77.43007794 28.97396698 78.45579877 26.65161133 79.47900391 C18.74574331 82.96468178 10.87168053 86.50356027 3.046875 90.16796875 C1.54062 90.86917694 0.0342739 91.57018946 -1.47216797 92.27099609 C-3.62606781 93.27326209 -5.77701144 94.28008649 -7.92047119 95.30450439 C-9.88625689 96.24386531 -11.85992139 97.16443216 -13.8359375 98.08203125 C-14.94743164 98.60861328 -16.05892578 99.13519531 -17.20410156 99.67773438 C-21.27599885 101.03621476 -24.3031016 101.00337189 -28.5703125 100.80078125 C-29.95561071 95.34616956 -30.8100068 90.43359724 -30.5703125 84.80078125 C-21.7982746 80.28665883 -12.8707171 76.21624581 -3.8203125 72.30078125 C-2.43995572 71.70069943 -1.05975038 71.10026913 0.3203125 70.49951172 C3.20190147 69.24542256 6.08413889 67.99284073 8.96679688 66.74121094 C15.74315779 63.79712507 22.51014935 60.83160656 29.2779541 57.86791992 C32.70318286 56.36818 36.12894856 54.86966784 39.5546875 53.37109375 C40.69164062 52.87367676 41.82859375 52.37625977 43 51.86376953 C43.80179687 51.5129834 44.60359375 51.16219727 45.4296875 50.80078125 C37.93582419 46.21915013 30.30909471 41.91465311 22.6171875 37.67578125 C10.82589526 31.15852329 -0.89568572 24.52495564 -12.5703125 17.80078125 C-12.5703125 13.12398243 -11.07369607 10.78533706 -8.5703125 7.05078125 C-8.20808594 6.44878906 -7.84585937 5.84679687 -7.47265625 5.2265625 C-5.26950833 1.93304307 -3.88078213 0.87041612 0 0 Z " fill="#A8A8A8" transform="translate(409.5703125,210.19921875)"/>
<path d="M0 0 C0.50588147 1.91512272 1.00448391 3.83216922 1.5 5.75 C1.7784375 6.81734375 2.056875 7.8846875 2.34375 8.984375 C3 12 3 12 3 16 C-14.36805119 23.84219689 -31.78595018 31.55276775 -49.28515625 39.09765625 C-53.32165321 40.83823667 -57.35229633 42.59002702 -61.37109375 44.37109375 C-62.12994873 44.70705566 -62.88880371 45.04301758 -63.6706543 45.38916016 C-65.56819836 46.23177042 -67.46388713 47.07855561 -69.359375 47.92578125 C-72 49 -72 49 -74 49 C-74 49.66 -74 50.32 -74 51 C-73.28875977 51.26844727 -72.57751953 51.53689453 -71.84472656 51.81347656 C-68.92572174 53.03098115 -66.24446807 54.44116794 -63.484375 55.984375 C-62.40929687 56.5834668 -61.33421875 57.18255859 -60.2265625 57.79980469 C-58.50566406 58.76515137 -58.50566406 58.76515137 -56.75 59.75 C-55.55479734 60.41849068 -54.35948328 61.08678225 -53.1640625 61.75488281 C-51.3143217 62.78895344 -49.46482753 63.82345259 -47.61608887 64.85931396 C-43.92966541 66.92442598 -40.23743389 68.97851341 -36.53839111 71.02093506 C-33.69035602 72.59385056 -30.8455845 74.17265657 -28 75.75 C-26.9387793 76.33362305 -25.87755859 76.91724609 -24.78417969 77.51855469 C-23.31319824 78.33694824 -23.31319824 78.33694824 -21.8125 79.171875 C-20.95269531 79.6472168 -20.09289062 80.12255859 -19.20703125 80.61230469 C-17.15131516 81.90485892 -15.62414593 83.20788458 -14 85 C-15.66044997 87.52220249 -17.34922663 90.01407393 -19.0625 92.5 C-19.52849609 93.21542969 -19.99449219 93.93085938 -20.47460938 94.66796875 C-22.83409587 98.03866375 -24.09409641 99.75385498 -28.1484375 100.85546875 C-33.90813901 99.57618414 -38.50759428 96.78926486 -43.5625 93.8125 C-45.21318481 92.86334717 -45.21318481 92.86334717 -46.8972168 91.89501953 C-50.27466381 89.94640845 -53.63857945 87.97610482 -57 86 C-57.98677734 85.4239502 -58.97355469 84.84790039 -59.99023438 84.25439453 C-66.35011241 80.54154763 -72.67974785 76.77980348 -79 73 C-80.92703982 71.85148949 -82.85412351 70.70305258 -84.78125 69.5546875 C-86.62523118 68.45351203 -88.46898964 67.3519635 -90.3125 66.25 C-91.17335205 65.73614746 -92.0342041 65.22229492 -92.92114258 64.69287109 C-93.70642334 64.22187988 -94.4917041 63.75088867 -95.30078125 63.265625 C-95.99341064 62.85086914 -96.68604004 62.43611328 -97.3996582 62.00878906 C-99 61 -99 61 -100 60 C-99.80229195 56.93552529 -99.44801618 54.02965399 -99 51 C-98.91298828 49.63294922 -98.91298828 49.63294922 -98.82421875 48.23828125 C-98.37196634 44.96287743 -97.72303117 42.83643953 -96 40 C-91.85783345 36.96970848 -87.39882809 35.07864933 -82.67333984 33.11914062 C-79.74479162 31.89316208 -76.8514199 30.60141375 -73.95703125 29.296875 C-69.41729499 27.25377286 -64.86934031 25.231233 -60.3125 23.2265625 C-53.4223656 20.19259673 -46.55217244 17.11563604 -39.68572998 14.02850342 C-37.82870172 13.19477391 -35.97049805 12.36372773 -34.11181641 11.53369141 C-29.02580726 9.26142628 -23.94437691 6.98509834 -18.8984375 4.625 C-18.16906982 4.28960205 -17.43970215 3.9542041 -16.68823242 3.60864258 C-14.87480352 2.77373504 -13.0678613 1.92477391 -11.26171875 1.07421875 C-7.2530151 -0.24601299 -4.1994571 -0.19692111 0 0 Z " fill="#A8A8A8" transform="translate(135,211)"/>
<path d="M0 0 C9.24 0 18.48 0 28 0 C26.01157147 6.62809509 23.96035467 13.01551633 21.4609375 19.4375 C21.13461334 20.28425293 20.80828918 21.13100586 20.47207642 22.00341797 C19.78975471 23.77198995 19.1056873 25.53988938 18.41992188 27.30712891 C17.36734593 30.01972532 16.31993953 32.73427395 15.2734375 35.44921875 C14.60706479 37.17459273 13.94040851 38.89985722 13.2734375 40.625 C12.80313614 41.84207642 12.80313614 41.84207642 12.32333374 43.08374023 C10.11809551 48.76380898 10.11809551 48.76380898 9 51 C0.09 51 -8.82 51 -18 51 C-15.75 40.875 -15.75 40.875 -14.30419922 37.12280273 C-13.98401825 36.28261093 -13.66383728 35.44241913 -13.33395386 34.57676697 C-12.99429596 33.70451981 -12.65463806 32.83227264 -12.3046875 31.93359375 C-11.77622726 30.55434471 -11.77622726 30.55434471 -11.23709106 29.14723206 C-10.12228651 26.24168166 -8.99880543 23.33957927 -7.875 20.4375 C-7.11270279 18.45530049 -6.35097841 16.47288058 -5.58984375 14.49023438 C-3.7342262 9.65713899 -1.86688612 4.82881364 0 0 Z " fill="#232323" transform="translate(195,234)"/>
<path d="M0 0 C0.33 0 0.66 0 1 0 C1 13.53 1 27.06 1 41 C-12.53 41 -26.06 41 -40 41 C-36.76284016 39.38142008 -33.61375469 38.05715856 -30.25 36.75 C-24.78388069 34.47853851 -20.44415797 31.88380762 -16 28 C-15.40703125 27.52304687 -14.8140625 27.04609375 -14.203125 26.5546875 C-6.56114327 19.82568589 -2.52693015 9.66396702 0 0 Z " fill="#000000" transform="translate(511,471)"/>
<path d="M0 0 C1.61857992 3.23715984 2.94284144 6.38624531 4.25 9.75 C6.52146149 15.21611931 9.11619238 19.55584203 13 24 C13.71542969 24.88945312 13.71542969 24.88945312 14.4453125 25.796875 C21.17431411 33.43885673 31.33603298 37.47306985 41 40 C41 40.33 41 40.66 41 41 C27.47 41 13.94 41 0 41 C0 27.47 0 13.94 0 0 Z " fill="#000000" transform="translate(0,471)"/>
<path d="M0 0 C13.53 0 27.06 0 41 0 C41 13.53 41 27.06 41 41 C39.38142008 37.76284016 38.05715856 34.61375469 36.75 31.25 C34.47853851 25.78388069 31.88380762 21.44415797 28 17 C27.52304687 16.40703125 27.04609375 15.8140625 26.5546875 15.203125 C19.82568589 7.56114327 9.66396702 3.52693015 0 1 C0 0.67 0 0.34 0 0 Z " fill="#000000" transform="translate(471,0)"/>
<path d="M0 0 C13.53 0 27.06 0 41 0 C37.76284016 1.61857992 34.61375469 2.94284144 31.25 4.25 C25.78388069 6.52146149 21.44415797 9.11619238 17 13 C16.40703125 13.47695312 15.8140625 13.95390625 15.203125 14.4453125 C7.56114327 21.17431411 3.52693015 31.33603298 1 41 C0.67 41 0.34 41 0 41 C0 27.47 0 13.94 0 0 Z " fill="#000000" transform="translate(0,0)"/>
</svg>
